<svg xmlns="http://www.w3.org/2000/svg" viewBox="0 0 178.05 27.42"><defs><style>.cls-1{fill:#1c223a;}.cls-2{fill:#1b223b;}.cls-3{fill:#de4741;}</style></defs><title>Asset 5</title><g id="Layer_2" data-name="Layer 2"><g id="Layer_1-2" data-name="Layer 1"><polygon class="cls-1" points="116.16 9.3 116.16 11.48 120.92 11.48 120.92 18.14 123.11 18.14 123.11 13.67 121.98 12.6 120.92 11.48 123.11 11.48 127.88 11.48 127.88 9.3 116.16 9.3"/><polygon class="cls-1" points="46.57 11.48 46.57 12.62 51.73 12.62 51.73 14.81 46.57 14.81 46.57 15.95 53.74 15.95 53.74 18.14 44.38 18.14 44.38 9.3 53.74 9.3 53.74 11.48 46.57 11.48"/><path class="cls-1" d="M55.57,13.71A4.44,4.44,0,0,1,60,9.28h5v2.18H60.15a2.24,2.24,0,0,0,0,4.48H65v2.19H60a4.43,4.43,0,0,1-4.42-4.43Z"/><polygon class="cls-1" points="77.21 9.3 77.21 18.14 75.02 18.14 75.02 14.81 69 14.81 69 18.14 66.81 18.14 66.81 9.3 69 9.3 69 12.62 75.02 12.62 75.02 9.3 77.21 9.3"/><polygon class="cls-1" points="89.38 9.3 89.38 18.14 87.19 18.14 81.23 12.35 81.23 18.14 79.04 18.14 79.04 9.3 81.23 9.3 87.19 15.09 87.19 9.3 89.38 9.3"/><path class="cls-1" d="M101.81,11.26v4.87a2,2,0,0,1-2,2H93.22a2,2,0,0,1-2-2V11.26a2,2,0,0,1,2-2H99.8a2,2,0,0,1,2,2m-2.19.67a.51.51,0,0,0-.5-.51H93.89a.51.51,0,0,0-.51.51v3.51a.51.51,0,0,0,.51.51h5.23a.51.51,0,0,0,.5-.51Z"/><path class="cls-1" d="M105.83,12v0a.58.58,0,0,0,.57.57h5.16a2.77,2.77,0,0,1,0,5.54h-8V16h7.92a.57.57,0,0,0,.57-.57v0a.57.57,0,0,0-.57-.57H106.4a2.77,2.77,0,0,1-.05-5.54h8v2.19H106.4a.57.57,0,0,0-.57.57"/><path class="cls-1" d="M163.54,12v0a.57.57,0,0,0,.57.57h5.16a2.77,2.77,0,0,1,0,5.54h-8V16h7.93a.58.58,0,0,0,.57-.57v0a.58.58,0,0,0-.57-.57h-5.16a2.77,2.77,0,0,1-.05-5.54h8v2.19h-7.93a.56.56,0,0,0-.57.57"/><path class="cls-1" d="M138.61,18.14h-2.53l-.85-1.48h-4.68l-.86,1.48h-2.53l5.11-8.85h1.21ZM134,14.48l-1.08-1.86-1.08,1.86Z"/><path class="cls-1" d="M138.64,13.71a4.43,4.43,0,0,1,4.43-4.43h5v2.18h-4.82a2.24,2.24,0,0,0,0,4.48H148v2.19h-5a4.44,4.44,0,0,1-4.43-4.43Z"/><polygon class="cls-1" points="152.85 14.81 152.06 15.48 152.06 18.13 149.87 18.13 149.87 9.28 152.06 9.28 152.06 12.62 156.03 9.28 159.45 9.28 154.54 13.39 159.52 18.14 156.37 18.14 152.85 14.81"/><polygon class="cls-1" points="30.84 9.3 30.84 11.48 35.59 11.48 35.59 18.14 37.78 18.14 37.78 13.67 36.66 12.6 35.59 11.48 37.78 11.48 42.55 11.48 42.55 9.3 30.84 9.3"/><polygon class="cls-2" points="13.71 13.71 13.71 6.86 6.86 6.86 13.71 13.71"/><polygon class="cls-2" points="20.55 13.71 13.7 13.71 13.4 6.86 20.55 6.86 20.55 13.71"/><polygon class="cls-2" points="13.71 7.09 6.86 6.86 6.86 0 13.71 0 13.71 7.09"/><polygon class="cls-2" points="13.71 27.42 13.71 20.57 6.85 20.56 13.71 27.42"/><polygon class="cls-2" points="20.55 27.42 13.7 27.42 13.37 20.57 20.55 20.57 20.55 27.42"/><polygon class="cls-2" points="13.71 20.92 6.86 20.57 6.86 13.71 13.71 13.71 13.71 20.92"/><polygon class="cls-3" points="6.86 13.71 6.86 6.86 0 6.86 6.86 13.71"/><path class="cls-1" d="M177.15,11.77h-.23a.1.1,0,0,1-.1-.06l-.44-.61s0,0,0,0h-.25v.72h-.26V10h.51a.85.85,0,0,1,.29,0,.42.42,0,0,1,.2.1.29.29,0,0,1,.12.15.45.45,0,0,1,0,.2.57.57,0,0,1,0,.18.39.39,0,0,1-.08.14.69.69,0,0,1-.13.11.75.75,0,0,1-.18.07l.09.08Zm-.82-.91a.48.48,0,0,0,.18,0,.24.24,0,0,0,.12-.07.25.25,0,0,0,.08-.1.32.32,0,0,0,0-.14.29.29,0,0,0-.1-.23.51.51,0,0,0-.3-.07h-.25v.64Z"/><path class="cls-1" d="M176.41,12.53a1.65,1.65,0,1,1,1.64-1.64,1.64,1.64,0,0,1-1.64,1.64m0-3.09a1.45,1.45,0,1,0,1.45,1.45,1.46,1.46,0,0,0-1.45-1.45"/></g></g></svg>